<svg xmlns="http://www.w3.org/2000/svg" width="17" height="22" viewBox="0 0 17 22">
    <g fill="none" fill-rule="evenodd">
        <path d="M-5-3h28v28H-5z"/>
        <g fill="#E00303" fill-rule="nonzero">
            <path d="M5.952 15.888L3.45 19.845c-.293.463-.982.632-1.511.353-.501-.264-.665-.821-.392-1.253l2.501-3.957c.293-.463.982-.632 1.511-.353.501.265.665.822.392 1.253zm-2.89-1.523l-2.5 3.957c-.643 1.018-.258 2.332.831 2.907 1.06.56 2.42.226 3.044-.76l2.5-3.957c.644-1.018.259-2.333-.83-2.907-1.06-.56-2.42-.227-3.044.76zM7.98 10.918a4.957 4.957 0 1 1 4.957-8.586 4.957 4.957 0 0 1-4.957 8.586zm5.54-9.597A6.124 6.124 0 1 0 7.397 11.93 6.124 6.124 0 0 0 13.521 1.32z"/>
            <path d="M5.573 13.4a.583.583 0 0 0 1.02.567l1.167-2.1a.583.583 0 0 0-1.02-.567l-1.167 2.1z"/>
        </g>
    </g>
</svg>
