<svg xmlns="http://www.w3.org/2000/svg" width="18" height="18" viewBox="0 0 18 18">
    <g fill="none" fill-rule="evenodd">
        <path d="M-5-5h28v28H-5z"/>
        <g fill="#CD1910" fill-rule="nonzero">
            <path d="M6.794 2.554v3.217A1.03 1.03 0 0 1 5.77 6.795H2.554A1.03 1.03 0 0 1 1.53 5.771V2.554A1.03 1.03 0 0 1 2.554 1.53H5.77a1.03 1.03 0 0 1 1.024 1.024zM2.554.364a2.196 2.196 0 0 0-2.19 2.19v3.217c0 1.206.984 2.191 2.19 2.191H5.77a2.196 2.196 0 0 0 2.191-2.191V2.554A2.196 2.196 0 0 0 5.77.364H2.554zM6.794 12.202v3.217a1.03 1.03 0 0 1-1.024 1.024H2.554a1.03 1.03 0 0 1-1.024-1.024v-3.217a1.03 1.03 0 0 1 1.024-1.024H5.77a1.03 1.03 0 0 1 1.024 1.024zm-4.24-2.191a2.196 2.196 0 0 0-2.19 2.191v3.217c0 1.206.984 2.19 2.19 2.19H5.77a2.196 2.196 0 0 0 2.191-2.19v-3.217a2.196 2.196 0 0 0-2.191-2.191H2.554zM16.442 12.202v3.217a1.03 1.03 0 0 1-1.025 1.024h-3.215a1.03 1.03 0 0 1-1.025-1.024v-3.217a1.03 1.03 0 0 1 1.025-1.024h3.215a1.03 1.03 0 0 1 1.025 1.024zm-4.24-2.191a2.196 2.196 0 0 0-2.191 2.191v3.217c0 1.206.984 2.19 2.19 2.19h3.216a2.196 2.196 0 0 0 2.191-2.19v-3.217a2.196 2.196 0 0 0-2.19-2.191h-3.216zM16.492 2.554v3.217a1.03 1.03 0 0 1-1.024 1.024h-3.216a1.03 1.03 0 0 1-1.024-1.024V2.554a1.03 1.03 0 0 1 1.024-1.024h3.216a1.03 1.03 0 0 1 1.024 1.024zm-4.24-2.19a2.196 2.196 0 0 0-2.19 2.19v3.217c0 1.206.984 2.191 2.19 2.191h3.216a2.196 2.196 0 0 0 2.19-2.191V2.554a2.196 2.196 0 0 0-2.19-2.19h-3.216z"/>
        </g>
    </g>
</svg>
