<svg xmlns="http://www.w3.org/2000/svg" width="26" height="22" viewBox="0 0 26 22">
    <g fill="none" fill-rule="evenodd">
        <path d="M-1-3h28v28H-1z"/>
        <g fill="#E00303" fill-rule="nonzero">
            <path d="M3.075 17.324a1.014 1.014 0 0 1-1.008-1.01V9.69c0-.555.456-1.01 1.008-1.01h9.953c.552 0 1.008.455 1.008 1.01v6.618c0 .555-.456 1.01-1.008 1.01H8.056a.649.649 0 0 0 0 1.294h4.972a2.311 2.311 0 0 0 2.308-2.304V9.69a2.311 2.311 0 0 0-2.308-2.305H3.075A2.311 2.311 0 0 0 .767 9.69v6.624a2.311 2.311 0 0 0 2.308 2.305h1.662c.359 0 .65-.29.65-.647a.649.649 0 0 0-.65-.648H3.075z"/>
            <path d="M5.446 19.658c-.235.235-.06.307-.06-.028v-1.658a.649.649 0 0 0-.649-.647c-.359 0-.65.289-.65.646l-.001 1.658c-.001 1.488 1.227 1.997 2.282.942l2.148-2.149a.645.645 0 0 0-.002-.915.652.652 0 0 0-.919.002l-2.149 2.15zM17.999 11.991c.359 0 .65-.29.65-.647a.649.649 0 0 0-.65-.647h-3.313c-.359 0-.65.29-.65.647 0 .358.291.647.65.647h3.313z"/>
            <path d="M22.98 11.997a2.311 2.311 0 0 0 2.308-2.305V3.07A2.311 2.311 0 0 0 22.979.764h-9.952a2.311 2.311 0 0 0-2.308 2.305v4.963c0 .358.29.647.65.647.359 0 .65-.29.65-.647V3.07c0-.555.455-1.01 1.008-1.01h9.952c.553 0 1.009.455 1.009 1.01v6.623c0 .555-.456 1.01-1.009 1.01h-1.66a.649.649 0 0 0 0 1.294l1.66.001z"/>
            <path d="M19.687 13.95c1.055 1.054 2.283.546 2.282-.942V11.35a.649.649 0 0 0-.651-.647c-.36 0-.65.29-.65.647l.001 1.658c0 .336.174.263-.06.029l-2.15-2.15a.652.652 0 0 0-.919-.001.645.645 0 0 0-.002.915l2.15 2.149z"/>
        </g>
    </g>
</svg>
