<svg xmlns="http://www.w3.org/2000/svg" width="23" height="18" viewBox="0 0 23 18">
    <g fill="none" fill-rule="evenodd">
        <path d="M-4-4h28v28H-4z"/>
        <path fill="#E00303" fill-rule="nonzero" d="M2.222 4.75h15.556c.53 0 .972.457.972 1.021v9.625c0 .564-.443 1.02-.972 1.02H2.222c-.53 0-.972-.456-.972-1.02V5.77c0-.564.443-1.021.972-1.021zM.083 15.396c0 1.2.957 2.187 2.139 2.187h15.556c1.182 0 2.139-.987 2.139-2.187V5.77c0-1.2-.957-2.188-2.139-2.188H2.222C1.04 3.583.083 4.57.083 5.771v9.625z"/>
        <path fill="#E00303" fill-rule="nonzero" d="M8.503 10.734c.931.568 2.063.568 2.955.026l7.635-5.537a.583.583 0 0 0-.686-.945L10.813 9.79c-.48.29-1.145.29-1.664-.026L1.593 4.278a.583.583 0 0 0-.686.944l7.596 5.512z"/>
        <g transform="translate(15)">
            <circle cx="4" cy="4" r="4" fill="#FFF"/>
            <circle cx="4" cy="4" r="3" fill="#E00303"/>
        </g>
    </g>
</svg>
