<svg xmlns="http://www.w3.org/2000/svg" width="32" height="42" viewBox="0 0 32 42">
    <g fill="none" fill-rule="evenodd">
        <path d="M-10-6h54v54h-54z"/>
        <g fill="#E00303" fill-rule="nonzero">
            <path d="M11.121 30.428l-4.823 7.63c-.564.893-1.894 1.219-2.915.68-.965-.509-1.28-1.583-.754-2.416l4.823-7.63c.564-.893 1.894-1.219 2.914-.68.966.509 1.281 1.583.755 2.416zM5.55 27.49L.727 35.12C-.514 37.084.23 39.62 2.33 40.727c2.046 1.079 4.668.437 5.871-1.467l4.823-7.63c1.241-1.964.497-4.499-1.603-5.607-2.045-1.079-4.667-.437-5.87 1.467zM15.032 20.842a9.56 9.56 0 1 1 13.06-3.5 9.561 9.561 0 0 1-13.06 3.5zM25.718 2.334C20.068-.927 12.846 1.008 9.584 6.657c-3.261 5.649-1.326 12.872 4.323 16.134 5.65 3.261 12.872 1.326 16.134-4.323 3.261-5.65 1.326-12.872-4.323-16.134z"/>
            <path d="M10.392 25.63a1.125 1.125 0 0 0 1.966 1.092l2.25-4.05a1.125 1.125 0 0 0-1.966-1.093l-2.25 4.05z"/>
        </g>
    </g>
</svg>
